<?xml version="1.0" encoding="UTF-8" standalone="no"?>
<!DOCTYPE svg PUBLIC "-//W3C//DTD SVG 1.1//EN" "http://www.w3.org/Graphics/SVG/1.1/DTD/svg11.dtd">
<svg version="1.1" xmlns="http://www.w3.org/2000/svg" xmlns:xlink="http://www.w3.org/1999/xlink" preserveAspectRatio="xMidYMid meet" viewBox="0 0 640 640" width="640" height="640"><defs><path d="M401.09 315.89C351.68 315.89 344.13 354.43 344.13 394.27C344.13 404.34 344.13 454.71 344.13 545.39C337.81 545.39 306.22 545.39 249.36 545.39C249.36 525.03 249.36 423.23 249.36 240C303.98 240 334.33 240 340.4 240C340.4 264.98 340.4 278.85 340.4 281.63C341.14 281.63 341.54 281.63 341.63 281.63C354.35 257.63 385.28 232.29 431.49 232.29C527.52 232.29 545.28 295.49 545.28 377.76C545.28 388.94 545.28 444.81 545.28 545.39C538.96 545.39 507.36 545.39 450.48 545.39C450.48 452.98 450.48 403.48 450.48 396.88C450.48 361.47 449.76 315.89 401.09 315.89ZM197.36 143.15C197.36 173.52 172.69 198.21 142.32 198.21C111.81 198.21 87.31 173.52 87.31 143.15C87.31 112.8 111.84 88.13 142.32 88.13C172.72 88.13 197.36 112.8 197.36 143.15ZM189.84 240L189.84 545.39L94.8 545.39L94.8 240L189.84 240ZM0 593.89C0 619.39 21.12 640 47.23 640C101.76 640 538.05 640 592.59 640C618.67 640 640 619.39 640 593.89C640 539.11 640 100.89 640 46.11C640 20.64 618.67 0 592.59 0C592.59 0 592.62 0 592.67 0C265.4 0 83.59 0 47.23 0C21.12 0 0 20.64 0 46.11C0 100.89 0 539.11 0 593.89Z" id="d2s1EQhaHY"></path></defs><g><g><g><use xlink:href="#d2s1EQhaHY" opacity="1" fill="#673ab7" fill-opacity="1"></use><g><use xlink:href="#d2s1EQhaHY" opacity="1" fill-opacity="0" stroke="#000000" stroke-width="1" stroke-opacity="0"></use></g></g></g></g></svg>