<?xml version="1.0" encoding="UTF-8" standalone="no"?>
<!DOCTYPE svg PUBLIC "-//W3C//DTD SVG 1.1//EN" "http://www.w3.org/Graphics/SVG/1.1/DTD/svg11.dtd">
<svg version="1.1" xmlns="http://www.w3.org/2000/svg" xmlns:xlink="http://www.w3.org/1999/xlink" preserveAspectRatio="xMidYMid meet" viewBox="0 0 640 640" width="50" height="50"><defs><path d="M6.38 214.89C27.7 207.78 198.28 150.92 219.6 143.81C224.49 142.19 229.77 144.83 231.4 149.72C233.03 154.61 230.39 159.89 225.5 161.52C213.63 165.48 154.26 185.27 47.4 220.89L275.03 260.48L572.71 45.78C388.3 107.25 285.85 141.4 265.36 148.23C260.47 149.86 255.18 147.22 253.55 142.33C251.92 137.44 254.57 132.16 259.46 130.53C295.99 118.35 588.25 20.93 624.78 8.75C624.91 8.71 624.99 8.7 625.1 8.68C627.75 7.9 630.68 8.29 633.07 9.95C636.74 12.51 638.08 17.31 636.26 21.4C611.52 77.05 413.64 522.3 388.9 577.96C387.67 580.73 385.17 582.72 382.2 583.32C381.59 583.44 380.98 583.5 380.37 583.5C378.01 583.5 375.7 582.6 373.95 580.94C367.07 574.41 332.66 541.77 270.73 483.03C215.83 517.71 185.32 536.98 179.22 540.83C179.18 540.86 179.13 540.86 179.09 540.88C177.65 541.76 175.99 542.27 174.25 542.27C173.9 542.27 173.55 542.25 173.19 542.21C168.89 541.72 165.48 538.34 164.97 534.04C163.63 522.71 156.89 466.03 144.76 364.02C59.67 283.93 12.39 239.43 2.94 230.54C0.55 228.28 -0.49 224.94 0.22 221.73C0.92 218.53 3.27 215.93 6.38 214.89ZM38.38 238.26L154.41 347.47L253.87 275.74L38.38 238.26ZM228.94 417.67L363.91 545.68L313.29 335.8L228.94 417.67ZM219.43 434.37L192.15 510.59L256.76 469.78L219.43 434.37ZM178.82 492.44C195.54 445.74 204.82 419.79 206.68 414.6C206.7 414.55 206.73 414.5 206.75 414.45C207.23 413.18 207.97 412.01 208.97 411.05C222.78 397.65 333.26 290.41 347.07 277.01C350.77 273.42 356.67 273.51 360.26 277.21C363.85 280.91 363.77 286.81 360.07 290.4C357.99 292.42 347.58 302.52 328.85 320.7L383 545.27L599.61 57.91C471.96 181.8 401.05 250.63 386.87 264.39C383.17 267.98 377.26 267.89 373.67 264.2C370.08 260.5 370.17 254.59 373.87 251C384.24 240.93 436.1 190.6 529.44 100L163.54 363.9L178.82 492.44Z" id="f2w0n2N3"></path><path d="M36.54 477.7C44.79 469.45 110.75 403.49 119 395.24C122.64 391.6 122.64 385.69 119 382.05C115.35 378.4 109.44 378.4 105.8 382.05C97.56 390.29 31.59 456.26 23.35 464.5C19.7 468.15 19.7 474.05 23.35 477.7C25.17 479.52 27.56 480.43 29.95 480.43C32.33 480.43 34.72 479.52 36.54 477.7Z" id="b14TLuFXSp"></path><path d="M180.84 621.99C189.08 613.75 255.04 547.78 263.29 539.54C266.93 535.89 266.93 529.99 263.29 526.34C259.65 522.7 253.74 522.7 250.09 526.34C241.85 534.59 175.89 600.55 167.64 608.79C164 612.44 164 618.35 167.64 621.99C169.46 623.81 171.85 624.72 174.24 624.72C176.63 624.72 179.02 623.81 180.84 621.99Z" id="h1Vr8bJm17"></path><path d="M36.54 621.99C44.79 613.75 110.75 547.78 119 539.54C122.64 535.89 122.64 529.99 119 526.34C115.35 522.7 109.44 522.7 105.8 526.34C97.56 534.59 31.59 600.55 23.35 608.79C19.7 612.44 19.7 618.35 23.35 621.99C25.17 623.81 27.56 624.72 29.95 624.72C32.33 624.72 34.72 623.81 36.54 621.99Z" id="a4vGEbKbdA"></path></defs><g><g><g><use xlink:href="#f2w0n2N3" opacity="1" fill="#8060ed" fill-opacity="1"></use><g><use xlink:href="#f2w0n2N3" opacity="1" fill-opacity="0" stroke="#000000" stroke-width="1" stroke-opacity="0"></use></g></g><g><use xlink:href="#b14TLuFXSp" opacity="1" fill="#8060ed" fill-opacity="1"></use><g><use xlink:href="#b14TLuFXSp" opacity="1" fill-opacity="0" stroke="#000000" stroke-width="1" stroke-opacity="0"></use></g></g><g><use xlink:href="#h1Vr8bJm17" opacity="1" fill="#8060ed" fill-opacity="1"></use><g><use xlink:href="#h1Vr8bJm17" opacity="1" fill-opacity="0" stroke="#000000" stroke-width="1" stroke-opacity="0"></use></g></g><g><use xlink:href="#a4vGEbKbdA" opacity="1" fill="#8060ed" fill-opacity="1"></use><g><use xlink:href="#a4vGEbKbdA" opacity="1" fill-opacity="0" stroke="#000000" stroke-width="1" stroke-opacity="0"></use></g></g></g></g></svg>