<?xml version="1.0" encoding="UTF-8" standalone="no"?>
<!DOCTYPE svg PUBLIC "-//W3C//DTD SVG 1.1//EN" "http://www.w3.org/Graphics/SVG/1.1/DTD/svg11.dtd">
<svg version="1.1" xmlns="http://www.w3.org/2000/svg" xmlns:xlink="http://www.w3.org/1999/xlink" preserveAspectRatio="xMidYMid meet" viewBox="0 0 640 640" width="640" height="640"><defs><path d="M422.63 144.88C422.63 144.88 422.63 144.88 422.63 144.88C422.63 311.46 422.63 404.01 422.63 422.52C422.63 422.52 422.63 422.52 422.63 422.52C302.06 422.52 235.08 422.52 221.69 422.52C221.69 422.52 221.69 422.52 221.69 422.52C221.69 255.93 221.69 163.39 221.69 144.88C221.69 144.88 221.69 144.88 221.69 144.88C342.25 144.88 409.23 144.88 422.63 144.88Z" id="dwwiIyCi9"></path><linearGradient id="gradientgyxvFKqsa" gradientUnits="userSpaceOnUse" x1="322.16" y1="422.52" x2="322.16" y2="144.88"><stop style="stop-color: #808080;stop-opacity: 0.25" offset="0%"></stop><stop style="stop-color: #808080;stop-opacity: 0.12" offset="54%"></stop><stop style="stop-color: #808080;stop-opacity: 0.1" offset="100%"></stop></linearGradient><path d="M420 152.5C420 152.5 420 152.5 420 152.5C420 315.4 420 405.9 420 424C420 424 420 424 420 424C302.5 424 237.22 424 224.17 424C224.17 424 224.17 424 224.17 424C224.17 261.1 224.17 170.6 224.17 152.5C224.17 152.5 224.17 152.5 224.17 152.5C341.67 152.5 406.94 152.5 420 152.5Z" id="c46kuwIrjQ"></path><path d="M370.99 139.75C370.99 139.75 370.99 139.75 370.99 139.75C370.99 153.87 370.99 161.72 370.99 163.28C370.99 163.28 370.99 163.28 370.99 163.28C312.7 163.28 280.32 163.28 273.84 163.28C273.84 163.28 273.84 163.28 273.84 163.28C273.84 149.17 273.84 141.32 273.84 139.75C273.84 139.75 273.84 139.75 273.84 139.75C332.13 139.75 364.51 139.75 370.99 139.75Z" id="b1mFaX6kE2"></path><linearGradient id="gradientb2tfMwo8rz" gradientUnits="userSpaceOnUse" x1="322.41" y1="163.28" x2="322.41" y2="139.75"><stop style="stop-color: #808080;stop-opacity: 0.25" offset="0%"></stop><stop style="stop-color: #808080;stop-opacity: 0.12" offset="54%"></stop><stop style="stop-color: #808080;stop-opacity: 0.1" offset="100%"></stop></linearGradient><path d="M308.83 130.66C308.83 138.34 314.91 144.57 322.41 144.57C329.91 144.57 335.99 138.34 335.99 130.66C335.99 122.98 329.91 116.75 322.41 116.75C314.91 116.75 308.83 122.98 308.83 130.66ZM314.18 130.87C314.07 126.45 317.56 122.76 321.99 122.65C326.42 122.53 330.11 126.03 330.22 130.46C330.23 130.52 330.23 130.59 330.23 130.66C330.28 135.03 326.78 138.62 322.41 138.68C317.98 138.8 314.3 135.3 314.18 130.87Z" id="bfsBjsdJ2"></path><linearGradient id="gradientd1NyMuR4iv" gradientUnits="userSpaceOnUse" x1="322.41" y1="144.56" x2="322.41" y2="116.75"><stop style="stop-color: #808080;stop-opacity: 0.25" offset="0%"></stop><stop style="stop-color: #808080;stop-opacity: 0.12" offset="54%"></stop><stop style="stop-color: #808080;stop-opacity: 0.1" offset="100%"></stop></linearGradient><path d="M370 140C370 140 370 140 370 140C370 153.5 370 161 370 162.5C370 162.5 370 162.5 370 162.5C312.94 162.5 281.24 162.5 274.9 162.5C274.9 162.5 274.9 162.5 274.9 162.5C274.9 149 274.9 141.5 274.9 140C274.9 140 274.9 140 274.9 140C331.96 140 363.66 140 370 140Z" id="b6nTTjnXIV"></path><path d="M309.12 131.07C309.12 138.41 315.07 144.37 322.41 144.37C329.76 144.37 335.71 138.41 335.71 131.07C335.71 123.73 329.76 117.78 322.41 117.78C315.07 117.78 309.12 123.73 309.12 131.07ZM314.74 131.07C314.74 126.84 318.18 123.4 322.41 123.4C326.65 123.4 330.08 126.84 330.08 131.07C330.08 135.31 326.65 138.74 322.41 138.74C318.18 138.74 314.74 135.31 314.74 131.07Z" id="c1TPvRcqVP"></path><path d="M275.37 190.89C275.37 190.89 275.37 190.89 275.37 190.89C275.37 216.05 275.37 230.03 275.37 232.82C275.37 232.82 275.37 232.82 275.37 232.82C250.22 232.82 236.24 232.82 233.45 232.82C233.45 232.82 233.45 232.82 233.45 232.82C233.45 207.67 233.45 193.69 233.45 190.89C233.45 190.89 233.45 190.89 233.45 190.89C258.6 190.89 272.58 190.89 275.37 190.89Z" id="hhFOIr5jt"></path><linearGradient id="gradienta2ADJCne0H" gradientUnits="userSpaceOnUse" x1="254.41" y1="232.82" x2="254.41" y2="190.89"><stop style="stop-color: #808080;stop-opacity: 0.25" offset="0%"></stop><stop style="stop-color: #808080;stop-opacity: 0.12" offset="54%"></stop><stop style="stop-color: #808080;stop-opacity: 0.1" offset="100%"></stop></linearGradient><path d="M275.52 273.98C275.52 273.98 275.52 273.98 275.52 273.98C275.52 299.14 275.52 313.11 275.52 315.91C275.52 315.91 275.52 315.91 275.52 315.91C250.36 315.91 236.38 315.91 233.59 315.91C233.59 315.91 233.59 315.91 233.59 315.91C233.59 290.75 233.59 276.78 233.59 273.98C233.59 273.98 233.59 273.98 233.59 273.98C258.75 273.98 272.72 273.98 275.52 273.98Z" id="fdzuTdfVc"></path><linearGradient id="gradientb3RofQPWri" gradientUnits="userSpaceOnUse" x1="254.55" y1="315.91" x2="254.55" y2="273.98"><stop style="stop-color: #808080;stop-opacity: 0.25" offset="0%"></stop><stop style="stop-color: #808080;stop-opacity: 0.12" offset="54%"></stop><stop style="stop-color: #808080;stop-opacity: 0.1" offset="100%"></stop></linearGradient><path d="M275.66 356.05C275.66 356.05 275.66 356.05 275.66 356.05C275.66 381.2 275.66 395.18 275.66 397.97C275.66 397.97 275.66 397.97 275.66 397.97C250.5 397.97 236.53 397.97 233.73 397.97C233.73 397.97 233.73 397.97 233.73 397.97C233.73 372.82 233.73 358.84 233.73 356.05C233.73 356.05 233.73 356.05 233.73 356.05C258.89 356.05 272.86 356.05 275.66 356.05Z" id="b92c4WigS"></path><linearGradient id="gradienta1j9kpCE2B" gradientUnits="userSpaceOnUse" x1="254.7" y1="397.97" x2="254.7" y2="356.05"><stop style="stop-color: #808080;stop-opacity: 0.25" offset="0%"></stop><stop style="stop-color: #808080;stop-opacity: 0.12" offset="54%"></stop><stop style="stop-color: #808080;stop-opacity: 0.1" offset="100%"></stop></linearGradient><path d="M273.84 192.43C273.84 192.43 273.84 192.43 273.84 192.43C273.84 215.74 273.84 228.7 273.84 231.29C273.84 231.29 273.84 231.29 273.84 231.29C250.52 231.29 237.57 231.29 234.98 231.29C234.98 231.29 234.98 231.29 234.98 231.29C234.98 207.97 234.98 195.02 234.98 192.43C234.98 192.43 234.98 192.43 234.98 192.43C258.3 192.43 271.25 192.43 273.84 192.43Z" id="c8mtsPuTO"></path><path d="M273.84 274.75C273.84 274.75 273.84 274.75 273.84 274.75C273.84 298.06 273.84 311.02 273.84 313.61C273.84 313.61 273.84 313.61 273.84 313.61C250.52 313.61 237.57 313.61 234.98 313.61C234.98 313.61 234.98 313.61 234.98 313.61C234.98 290.29 234.98 277.34 234.98 274.75C234.98 274.75 234.98 274.75 234.98 274.75C258.3 274.75 271.25 274.75 273.84 274.75Z" id="dEsvgbBF5"></path><path d="M273.84 357.07C273.84 357.07 273.84 357.07 273.84 357.07C273.84 380.39 273.84 393.34 273.84 395.93C273.84 395.93 273.84 395.93 273.84 395.93C250.52 395.93 237.57 395.93 234.98 395.93C234.98 395.93 234.98 395.93 234.98 395.93C234.98 372.61 234.98 359.66 234.98 357.07C234.98 357.07 234.98 357.07 234.98 357.07C258.3 357.07 271.25 357.07 273.84 357.07Z" id="cnWF8Xp0"></path><path d="M352.67 204.42C352.67 204.42 352.67 204.42 352.67 204.42C352.67 206.65 352.67 207.89 352.67 208.14C352.67 208.14 352.67 208.14 352.67 208.14C320.71 208.14 302.96 208.14 299.4 208.14C299.4 208.14 299.4 208.14 299.4 208.14C299.4 205.91 299.4 204.67 299.4 204.42C299.4 204.42 299.4 204.42 299.4 204.42C331.36 204.42 349.12 204.42 352.67 204.42Z" id="b1iPj8Di1h"></path><path d="M387.35 210C387.35 210 387.35 210 387.35 210C387.35 212.23 387.35 213.47 387.35 213.72C387.35 213.72 387.35 213.72 387.35 213.72C334.58 213.72 305.27 213.72 299.4 213.72C299.4 213.72 299.4 213.72 299.4 213.72C299.4 211.49 299.4 210.25 299.4 210C299.4 210 299.4 210 299.4 210C352.17 210 381.49 210 387.35 210Z" id="a1iPinbus5"></path><path d="M381.16 215.58C381.16 215.58 381.16 215.58 381.16 215.58C381.16 217.81 381.16 219.04 381.16 219.29C381.16 219.29 381.16 219.29 381.16 219.29C332.11 219.29 304.85 219.29 299.4 219.29C299.4 219.29 299.4 219.29 299.4 219.29C299.4 217.06 299.4 215.82 299.4 215.58C299.4 215.58 299.4 215.58 299.4 215.58C348.46 215.58 375.71 215.58 381.16 215.58Z" id="a4xMvqYVEf"></path><path d="M352.67 286.74C352.67 286.74 352.67 286.74 352.67 286.74C352.67 288.97 352.67 290.21 352.67 290.46C352.67 290.46 352.67 290.46 352.67 290.46C320.71 290.46 302.96 290.46 299.4 290.46C299.4 290.46 299.4 290.46 299.4 290.46C299.4 288.23 299.4 286.99 299.4 286.74C299.4 286.74 299.4 286.74 299.4 286.74C331.36 286.74 349.12 286.74 352.67 286.74Z" id="b9WNJ9Rny"></path><path d="M387.35 292.32C387.35 292.32 387.35 292.32 387.35 292.32C387.35 294.55 387.35 295.79 387.35 296.04C387.35 296.04 387.35 296.04 387.35 296.04C334.58 296.04 305.27 296.04 299.4 296.04C299.4 296.04 299.4 296.04 299.4 296.04C299.4 293.81 299.4 292.57 299.4 292.32C299.4 292.32 299.4 292.32 299.4 292.32C352.17 292.32 381.49 292.32 387.35 292.32Z" id="b8EGK2ee7"></path><path d="M381.16 297.9C381.16 297.9 381.16 297.9 381.16 297.9C381.16 300.13 381.16 301.37 381.16 301.61C381.16 301.61 381.16 301.61 381.16 301.61C332.11 301.61 304.85 301.61 299.4 301.61C299.4 301.61 299.4 301.61 299.4 301.61C299.4 299.38 299.4 298.14 299.4 297.9C299.4 297.9 299.4 297.9 299.4 297.9C348.46 297.9 375.71 297.9 381.16 297.9Z" id="aI2TkYAft"></path><path d="M352.67 369.07C352.67 369.07 352.67 369.07 352.67 369.07C352.67 371.3 352.67 372.53 352.67 372.78C352.67 372.78 352.67 372.78 352.67 372.78C320.71 372.78 302.96 372.78 299.4 372.78C299.4 372.78 299.4 372.78 299.4 372.78C299.4 370.55 299.4 369.31 299.4 369.07C299.4 369.07 299.4 369.07 299.4 369.07C331.36 369.07 349.12 369.07 352.67 369.07Z" id="alfgxqBam"></path><path d="M387.35 374.64C387.35 374.64 387.35 374.64 387.35 374.64C387.35 376.87 387.35 378.11 387.35 378.36C387.35 378.36 387.35 378.36 387.35 378.36C334.58 378.36 305.27 378.36 299.4 378.36C299.4 378.36 299.4 378.36 299.4 378.36C299.4 376.13 299.4 374.89 299.4 374.64C299.4 374.64 299.4 374.64 299.4 374.64C352.17 374.64 381.49 374.64 387.35 374.64Z" id="edfRCVHG1"></path><path d="M381.16 380.22C381.16 380.22 381.16 380.22 381.16 380.22C381.16 382.45 381.16 383.69 381.16 383.93C381.16 383.93 381.16 383.93 381.16 383.93C332.11 383.93 304.85 383.93 299.4 383.93C299.4 383.93 299.4 383.93 299.4 383.93C299.4 381.7 299.4 380.46 299.4 380.22C299.4 380.22 299.4 380.22 299.4 380.22C348.46 380.22 375.71 380.22 381.16 380.22Z" id="baaGuodE6"></path><path d="M252.65 216.02L262.64 201.32L266.17 204.26L252.65 221.9L242.65 210.72L245.59 209.54L245.59 209.54L252.65 216.02Z" id="f2M6kfu1Tz"></path><linearGradient id="gradientaW8cjvoLO" gradientUnits="userSpaceOnUse" x1="254.41" y1="221.9" x2="254.41" y2="201.31"><stop style="stop-color: #808080;stop-opacity: 0.25" offset="0%"></stop><stop style="stop-color: #808080;stop-opacity: 0.12" offset="54%"></stop><stop style="stop-color: #808080;stop-opacity: 0.1" offset="100%"></stop></linearGradient><path d="M252.88 215.44L261.57 202.65L264.64 205.21L252.88 220.55L244.18 210.84L246.74 209.81L246.74 209.81L252.88 215.44Z" id="cKABaFxzS"></path><path d="M252.88 298.27L261.57 285.49L264.64 288.04L252.88 303.38L244.18 293.67L246.74 292.64L246.74 292.64L252.88 298.27Z" id="b83I5K2jga"></path><path d="M252.88 381.1L261.57 368.32L264.64 370.88L252.88 386.21L244.18 376.5L246.74 375.48L246.74 375.48L252.88 381.1Z" id="g88vrJq6i9"></path><path d="M429.53 296.22L432.6 296.22" id="e1ut60Xm0q"></path><path d="M438.5 296.22L506.35 296.22" id="aaO4gSwB7s"></path><path d="M509.3 296.22L512.36 296.22L512.36 293.16" id="g1lfw9CSRu"></path><path d="M512.36 287.3L512.36 231.66" id="d1cQZq32GP"></path><path d="M512.36 228.73L512.36 225.66" id="c2oy0khI2K"></path><path d="M215.04 210.07L146.52 210.07L146.52 274.49" id="b2TXtvdhOM"></path><path d="M254.41 429.42L254.41 466.23L356.67 466.23" id="bRnvdY0YE"></path><path d="M503.93 138.23L465.14 171.44L464.79 171.24L464.79 171.51L464.53 171.51L464.79 171.66L464.79 171.78L464.79 214.91L464.79 215.44L543.06 215.44L542.59 215.17L543.33 215.17L543.33 171.51L543.33 171.51L503.93 138.23Z" id="aJlnUxEKZ"></path><linearGradient id="gradientbgRKwORhP" gradientUnits="userSpaceOnUse" x1="503.93" y1="215.44" x2="503.93" y2="138.23"><stop style="stop-color: #808080;stop-opacity: 0.25" offset="0%"></stop><stop style="stop-color: #808080;stop-opacity: 0.12" offset="54%"></stop><stop style="stop-color: #808080;stop-opacity: 0.1" offset="100%"></stop></linearGradient><path d="M466.1 213.88L466.1 171.96L503.43 140L541.26 171.96L541.26 213.88L541.26 213.88L466.1 213.88Z" id="bNsMU8rQw"></path><path d="M466.09 171.72L503.42 192.68L541.25 171.72" id="ax7KKl2AG"></path><path d="M481.17 206.75L481.17 152.04L526.68 152.04L526.68 179.86L504.19 192.16L504.19 192.16L481.17 206.75Z" id="a1rmIhDGiW"></path><linearGradient id="gradientcpj31iRCO" gradientUnits="userSpaceOnUse" x1="503.93" y1="206.75" x2="503.93" y2="152.04"><stop style="stop-color: #808080;stop-opacity: 0.25" offset="0%"></stop><stop style="stop-color: #808080;stop-opacity: 0.12" offset="54%"></stop><stop style="stop-color: #808080;stop-opacity: 0.1" offset="100%"></stop></linearGradient><path d="M483.7 206.84L483.7 153.16L527.16 153.16L527.16 180.46L505.68 192.53L505.68 192.53L483.7 206.84Z" id="fxr4xwYuA"></path><path d="M541.51 213.39L466.35 171.46L466.35 213.39L466.35 213.39L541.51 213.39Z" id="a5oVVVLg5"></path><path d="M541.51 213.9L466.35 171.98L466.35 213.9L466.35 213.9L541.51 213.9Z" id="eUAk0cfKF"></path><path d="M519.52 161.24C519.52 161.24 519.52 161.24 519.52 161.24C519.52 162.47 519.52 163.15 519.52 163.28C519.52 163.28 519.52 163.28 519.52 163.28C500.5 163.28 489.94 163.28 487.82 163.28C487.82 163.28 487.82 163.28 487.82 163.28C487.82 162.06 487.82 161.38 487.82 161.24C487.82 161.24 487.82 161.24 487.82 161.24C506.84 161.24 517.41 161.24 519.52 161.24Z" id="d3FbbJTab"></path><path d="M519.52 165.33C519.52 165.33 519.52 165.33 519.52 165.33C519.52 166.56 519.52 167.24 519.52 167.37C519.52 167.37 519.52 167.37 519.52 167.37C500.5 167.37 489.94 167.37 487.82 167.37C487.82 167.37 487.82 167.37 487.82 167.37C487.82 166.15 487.82 165.47 487.82 165.33C487.82 165.33 487.82 165.33 487.82 165.33C506.84 165.33 517.41 165.33 519.52 165.33Z" id="gibx20Kal"></path><path d="M519.52 169.42C519.52 169.42 519.52 169.42 519.52 169.42C519.52 170.65 519.52 171.33 519.52 171.46C519.52 171.46 519.52 171.46 519.52 171.46C500.5 171.46 489.94 171.46 487.82 171.46C487.82 171.46 487.82 171.46 487.82 171.46C487.82 170.24 487.82 169.56 487.82 169.42C487.82 169.42 487.82 169.42 487.82 169.42C506.84 169.42 517.41 169.42 519.52 169.42Z" id="c2py5EkSym"></path><path d="M519.52 173.51C519.52 173.51 519.52 173.51 519.52 173.51C519.52 174.74 519.52 175.42 519.52 175.56C519.52 175.56 519.52 175.56 519.52 175.56C500.5 175.56 489.94 175.56 487.82 175.56C487.82 175.56 487.82 175.56 487.82 175.56C487.82 174.33 487.82 173.65 487.82 173.51C487.82 173.51 487.82 173.51 487.82 173.51C506.84 173.51 517.41 173.51 519.52 173.51Z" id="d5lJnEtNAF"></path><path d="M519.52 177.6C519.52 177.6 519.52 177.6 519.52 177.6C519.52 178.83 519.52 179.51 519.52 179.65C519.52 179.65 519.52 179.65 519.52 179.65C500.5 179.65 489.94 179.65 487.82 179.65C487.82 179.65 487.82 179.65 487.82 179.65C487.82 178.42 487.82 177.74 487.82 177.6C487.82 177.6 487.82 177.6 487.82 177.6C506.84 177.6 517.41 177.6 519.52 177.6Z" id="djiQb4pZA"></path><path d="M525.66 179.65L503.29 192.08L503.9 192.41L525.66 180.67L525.66 180.67L525.66 179.65Z" id="bjGhERY8y"></path><path d="M462.24 433.77C462.24 433.77 462.24 433.77 462.24 433.77C462.24 487.45 462.24 517.28 462.24 523.25C462.24 523.25 462.24 523.25 462.24 523.25C408.88 523.25 379.23 523.25 373.3 523.25C373.3 523.25 373.3 523.25 373.3 523.25C373.3 469.56 373.3 439.73 373.3 433.77C373.3 433.77 373.3 433.77 373.3 433.77C426.66 433.77 456.31 433.77 462.24 433.77Z" id="b3K4wKuvdN"></path><linearGradient id="gradienta4SAyqXmRX" gradientUnits="userSpaceOnUse" x1="417.77" y1="523.25" x2="417.77" y2="433.77"><stop style="stop-color: #808080;stop-opacity: 0.25" offset="0%"></stop><stop style="stop-color: #808080;stop-opacity: 0.12" offset="54%"></stop><stop style="stop-color: #808080;stop-opacity: 0.1" offset="100%"></stop></linearGradient><path d="M461.21 437.31C461.21 437.31 461.21 437.31 461.21 437.31C461.21 488.54 461.21 517 461.21 522.69C461.21 522.69 461.21 522.69 461.21 522.69C410.28 522.69 381.99 522.69 376.33 522.69C376.33 522.69 376.33 522.69 376.33 522.69C376.33 471.46 376.33 443 376.33 437.31C376.33 437.31 376.33 437.31 376.33 437.31C427.26 437.31 455.55 437.31 461.21 437.31Z" id="aKIxxHOBa"></path><path d="M455.61 438.37C455.61 438.37 455.61 438.37 455.61 438.37C455.61 477.64 455.61 499.45 455.61 503.82C455.61 503.82 455.61 503.82 455.61 503.82C410.82 503.82 385.93 503.82 380.96 503.82C380.96 503.82 380.96 503.82 380.96 503.82C380.96 464.55 380.96 442.73 380.96 438.37C380.96 438.37 380.96 438.37 380.96 438.37C425.75 438.37 450.63 438.37 455.61 438.37Z" id="bqjlkKLL2"></path><path d="M455.61 482.85C434.98 482.85 418.28 477.59 418.28 471.09C397.65 471.09 380.96 475.67 380.96 481.32C380.96 482.95 380.96 491.13 380.96 505.86L455.61 505.86C455.61 493.59 455.61 485.92 455.61 482.85Z" id="a9wvEbjim"></path><path d="M443.34 445.01C439.1 445.01 435.67 448.45 435.67 452.68C435.67 456.92 439.1 460.35 443.34 460.35C447.57 460.35 451.01 456.92 451.01 452.68C451.01 448.45 447.57 445.01 443.34 445.01Z" id="a7znoJlya7"></path><path d="M200.98 280.25C200.98 280.25 200.98 280.25 200.98 280.25C200.98 324.58 200.98 349.2 200.98 354.13C200.98 354.13 200.98 354.13 200.98 354.13C138.39 354.13 103.62 354.13 96.67 354.13C96.67 354.13 96.67 354.13 96.67 354.13C96.67 309.8 96.67 285.17 96.67 280.25C96.67 280.25 96.67 280.25 96.67 280.25C159.25 280.25 194.02 280.25 200.98 280.25Z" id="bMcaIVpr"></path><linearGradient id="gradientb2MgfL2MOi" gradientUnits="userSpaceOnUse" x1="148.82" y1="354.13" x2="148.82" y2="280.25"><stop style="stop-color: #808080;stop-opacity: 0.25" offset="0%"></stop><stop style="stop-color: #808080;stop-opacity: 0.12" offset="54%"></stop><stop style="stop-color: #808080;stop-opacity: 0.1" offset="100%"></stop></linearGradient><path d="M198.17 284.2C198.17 284.2 198.17 284.2 198.17 284.2C198.17 325.92 198.17 349.1 198.17 353.74C198.17 353.74 198.17 353.74 198.17 353.74C139.27 353.74 106.54 353.74 100 353.74C100 353.74 100 353.74 100 353.74C100 312.01 100 288.83 100 284.2C100 284.2 100 284.2 100 284.2C158.9 284.2 191.63 284.2 198.17 284.2Z" id="acCaaIPen"></path><path d="M148.63 299.14C148.79 300.39 149.61 306.64 151.08 317.9C139.76 317.14 133.47 316.72 132.21 316.64C132.18 317.05 132.16 317.47 132.16 317.9C132.16 328.34 140.63 336.81 151.08 336.81C161.53 336.81 170 328.34 170 317.9C170 307.45 161.53 298.98 151.08 298.98C150.26 298.98 149.44 299.03 148.63 299.14Z" id="e3lWBsVSbp"></path><path d="M144.3 296.56C135.35 297.73 128.48 305.06 127.88 314.06C129.14 314.14 135.43 314.56 146.75 315.32C145.44 305.31 144.63 299.06 144.3 296.56Z" id="d2wbWsjHG"></path></defs><g><g><g><use xlink:href="#dwwiIyCi9" opacity="1" fill="url(#gradientgyxvFKqsa)"></use><g><use xlink:href="#dwwiIyCi9" opacity="1" fill-opacity="0" stroke="#000000" stroke-width="1" stroke-opacity="0"></use></g></g><g><use xlink:href="#c46kuwIrjQ" opacity="1" fill="#6c27c6" fill-opacity="1"></use><g><use xlink:href="#c46kuwIrjQ" opacity="1" fill-opacity="0" stroke="#ffffff" stroke-width="2" stroke-opacity="1"></use></g></g><g><use xlink:href="#b1mFaX6kE2" opacity="1" fill="url(#gradientb2tfMwo8rz)"></use><g><use xlink:href="#b1mFaX6kE2" opacity="1" fill-opacity="0" stroke="#000000" stroke-width="1" stroke-opacity="0"></use></g></g><g><use xlink:href="#bfsBjsdJ2" opacity="1" fill="url(#gradientd1NyMuR4iv)"></use><g><use xlink:href="#bfsBjsdJ2" opacity="1" fill-opacity="0" stroke="#000000" stroke-width="1" stroke-opacity="0"></use></g></g><g><use xlink:href="#b6nTTjnXIV" opacity="1" fill="#ffffff" fill-opacity="1"></use><g><use xlink:href="#b6nTTjnXIV" opacity="1" fill-opacity="0" stroke="#000000" stroke-width="1" stroke-opacity="0"></use></g></g><g><use xlink:href="#c1TPvRcqVP" opacity="1" fill="#6c27c6" fill-opacity="1"></use><g><use xlink:href="#c1TPvRcqVP" opacity="1" fill-opacity="0" stroke="#000000" stroke-width="1" stroke-opacity="0"></use></g></g><g><use xlink:href="#hhFOIr5jt" opacity="1" fill="url(#gradienta2ADJCne0H)"></use><g><use xlink:href="#hhFOIr5jt" opacity="1" fill-opacity="0" stroke="#000000" stroke-width="1" stroke-opacity="0"></use></g></g><g><use xlink:href="#fdzuTdfVc" opacity="1" fill="url(#gradientb3RofQPWri)"></use><g><use xlink:href="#fdzuTdfVc" opacity="1" fill-opacity="0" stroke="#000000" stroke-width="1" stroke-opacity="0"></use></g></g><g><use xlink:href="#b92c4WigS" opacity="1" fill="url(#gradienta1j9kpCE2B)"></use><g><use xlink:href="#b92c4WigS" opacity="1" fill-opacity="0" stroke="#000000" stroke-width="1" stroke-opacity="0"></use></g></g><g><use xlink:href="#c8mtsPuTO" opacity="1" fill="#69f0ae" fill-opacity="1"></use><g><use xlink:href="#c8mtsPuTO" opacity="1" fill-opacity="0" stroke="#000000" stroke-width="1" stroke-opacity="0"></use></g></g><g><use xlink:href="#dEsvgbBF5" opacity="1" fill="#69f0ae" fill-opacity="1"></use><g><use xlink:href="#dEsvgbBF5" opacity="1" fill-opacity="0" stroke="#000000" stroke-width="1" stroke-opacity="0"></use></g></g><g><use xlink:href="#cnWF8Xp0" opacity="1" fill="#ffffff" fill-opacity="1"></use><g><use xlink:href="#cnWF8Xp0" opacity="1" fill-opacity="0" stroke="#000000" stroke-width="1" stroke-opacity="0"></use></g></g><g><use xlink:href="#b1iPj8Di1h" opacity="1" fill="#e0e0e0" fill-opacity="1"></use><g><use xlink:href="#b1iPj8Di1h" opacity="1" fill-opacity="0" stroke="#000000" stroke-width="1" stroke-opacity="0"></use></g></g><g><use xlink:href="#a1iPinbus5" opacity="1" fill="#e0e0e0" fill-opacity="1"></use><g><use xlink:href="#a1iPinbus5" opacity="1" fill-opacity="0" stroke="#000000" stroke-width="1" stroke-opacity="0"></use></g></g><g><use xlink:href="#a4xMvqYVEf" opacity="1" fill="#e0e0e0" fill-opacity="1"></use><g><use xlink:href="#a4xMvqYVEf" opacity="1" fill-opacity="0" stroke="#000000" stroke-width="1" stroke-opacity="0"></use></g></g><g><use xlink:href="#b9WNJ9Rny" opacity="1" fill="#e0e0e0" fill-opacity="1"></use><g><use xlink:href="#b9WNJ9Rny" opacity="1" fill-opacity="0" stroke="#000000" stroke-width="1" stroke-opacity="0"></use></g></g><g><use xlink:href="#b8EGK2ee7" opacity="1" fill="#e0e0e0" fill-opacity="1"></use><g><use xlink:href="#b8EGK2ee7" opacity="1" fill-opacity="0" stroke="#000000" stroke-width="1" stroke-opacity="0"></use></g></g><g><use xlink:href="#aI2TkYAft" opacity="1" fill="#e0e0e0" fill-opacity="1"></use><g><use xlink:href="#aI2TkYAft" opacity="1" fill-opacity="0" stroke="#000000" stroke-width="1" stroke-opacity="0"></use></g></g><g><use xlink:href="#alfgxqBam" opacity="1" fill="#e0e0e0" fill-opacity="1"></use><g><use xlink:href="#alfgxqBam" opacity="1" fill-opacity="0" stroke="#000000" stroke-width="1" stroke-opacity="0"></use></g></g><g><use xlink:href="#edfRCVHG1" opacity="1" fill="#e0e0e0" fill-opacity="1"></use><g><use xlink:href="#edfRCVHG1" opacity="1" fill-opacity="0" stroke="#000000" stroke-width="1" stroke-opacity="0"></use></g></g><g><use xlink:href="#baaGuodE6" opacity="1" fill="#e0e0e0" fill-opacity="1"></use><g><use xlink:href="#baaGuodE6" opacity="1" fill-opacity="0" stroke="#000000" stroke-width="1" stroke-opacity="0"></use></g></g><g><use xlink:href="#f2M6kfu1Tz" opacity="1" fill="url(#gradientaW8cjvoLO)"></use><g><use xlink:href="#f2M6kfu1Tz" opacity="1" fill-opacity="0" stroke="#000000" stroke-width="1" stroke-opacity="0"></use></g></g><g><use xlink:href="#cKABaFxzS" opacity="1" fill="#ffffff" fill-opacity="1"></use><g><use xlink:href="#cKABaFxzS" opacity="1" fill-opacity="0" stroke="#000000" stroke-width="1" stroke-opacity="0"></use></g></g><g><use xlink:href="#b83I5K2jga" opacity="1" fill="#ffffff" fill-opacity="1"></use><g><use xlink:href="#b83I5K2jga" opacity="1" fill-opacity="0" stroke="#000000" stroke-width="1" stroke-opacity="0"></use></g></g><g><use xlink:href="#g88vrJq6i9" opacity="1" fill="#ffffff" fill-opacity="1"></use><g><use xlink:href="#g88vrJq6i9" opacity="1" fill-opacity="0" stroke="#000000" stroke-width="1" stroke-opacity="0"></use></g></g><g><use xlink:href="#e1ut60Xm0q" opacity="1" fill="#000000" fill-opacity="0"></use><g><use xlink:href="#e1ut60Xm0q" opacity="1" fill-opacity="0" stroke="#69f0ae" stroke-width="5" stroke-opacity="1"></use></g></g><g><use xlink:href="#aaO4gSwB7s" opacity="1" fill="#000000" fill-opacity="0"></use><g><use xlink:href="#aaO4gSwB7s" opacity="1" fill-opacity="0" stroke="#69f0ae" stroke-width="5" stroke-opacity="1"></use></g></g><g><use xlink:href="#g1lfw9CSRu" opacity="1" fill="#000000" fill-opacity="0"></use><g><use xlink:href="#g1lfw9CSRu" opacity="1" fill-opacity="0" stroke="#69f0ae" stroke-width="5" stroke-opacity="1"></use></g></g><g><use xlink:href="#d1cQZq32GP" opacity="1" fill="#000000" fill-opacity="0"></use><g><use xlink:href="#d1cQZq32GP" opacity="1" fill-opacity="0" stroke="#69f0ae" stroke-width="5" stroke-opacity="1"></use></g></g><g><use xlink:href="#c2oy0khI2K" opacity="1" fill="#000000" fill-opacity="0"></use><g><use xlink:href="#c2oy0khI2K" opacity="1" fill-opacity="0" stroke="#69f0ae" stroke-width="5" stroke-opacity="1"></use></g></g><g><use xlink:href="#b2TXtvdhOM" opacity="1" fill="#000000" fill-opacity="0"></use><g><use xlink:href="#b2TXtvdhOM" opacity="1" fill-opacity="0" stroke="#69f0ae" stroke-width="5" stroke-opacity="1"></use></g></g><g><use xlink:href="#bRnvdY0YE" opacity="1" fill="#000000" fill-opacity="0"></use><g><use xlink:href="#bRnvdY0YE" opacity="1" fill-opacity="0" stroke="#69f0ae" stroke-width="5" stroke-opacity="1"></use></g></g><g><use xlink:href="#aJlnUxEKZ" opacity="1" fill="url(#gradientbgRKwORhP)"></use><g><use xlink:href="#aJlnUxEKZ" opacity="1" fill-opacity="0" stroke="#000000" stroke-width="1" stroke-opacity="0"></use></g></g><g><use xlink:href="#bNsMU8rQw" opacity="1" fill="#ffffff" fill-opacity="1"></use><g><use xlink:href="#bNsMU8rQw" opacity="1" fill-opacity="0" stroke="#000000" stroke-width="1" stroke-opacity="0"></use></g></g><g><use xlink:href="#ax7KKl2AG" opacity="1" fill="#e0e0e0" fill-opacity="1"></use><g><use xlink:href="#ax7KKl2AG" opacity="1" fill-opacity="0" stroke="#000000" stroke-width="1" stroke-opacity="0"></use></g></g><g><use xlink:href="#a1rmIhDGiW" opacity="1" fill="url(#gradientcpj31iRCO)"></use><g><use xlink:href="#a1rmIhDGiW" opacity="1" fill-opacity="0" stroke="#000000" stroke-width="1" stroke-opacity="0"></use></g></g><g><use xlink:href="#fxr4xwYuA" opacity="1" fill="#37474f" fill-opacity="1"></use><g><use xlink:href="#fxr4xwYuA" opacity="1" fill-opacity="0" stroke="#000000" stroke-width="1" stroke-opacity="0"></use></g></g><g><use xlink:href="#a5oVVVLg5" opacity="1" fill="#000000" fill-opacity="1"></use><g><use xlink:href="#a5oVVVLg5" opacity="1" fill-opacity="0" stroke="#000000" stroke-width="1" stroke-opacity="0"></use></g></g><g><use xlink:href="#eUAk0cfKF" opacity="1" fill="#ffffff" fill-opacity="1"></use><g><use xlink:href="#eUAk0cfKF" opacity="1" fill-opacity="0" stroke="#000000" stroke-width="1" stroke-opacity="0"></use></g></g><g><use xlink:href="#d3FbbJTab" opacity="1" fill="#ffffff" fill-opacity="1"></use><g><use xlink:href="#d3FbbJTab" opacity="1" fill-opacity="0" stroke="#000000" stroke-width="1" stroke-opacity="0"></use></g></g><g><use xlink:href="#gibx20Kal" opacity="1" fill="#ffffff" fill-opacity="1"></use><g><use xlink:href="#gibx20Kal" opacity="1" fill-opacity="0" stroke="#000000" stroke-width="1" stroke-opacity="0"></use></g></g><g><use xlink:href="#c2py5EkSym" opacity="1" fill="#6c63ff" fill-opacity="1"></use><g><use xlink:href="#c2py5EkSym" opacity="1" fill-opacity="0" stroke="#000000" stroke-width="1" stroke-opacity="0"></use></g></g><g><use xlink:href="#d5lJnEtNAF" opacity="1" fill="#ffffff" fill-opacity="1"></use><g><use xlink:href="#d5lJnEtNAF" opacity="1" fill-opacity="0" stroke="#000000" stroke-width="1" stroke-opacity="0"></use></g></g><g><use xlink:href="#djiQb4pZA" opacity="1" fill="#6c63ff" fill-opacity="1"></use><g><use xlink:href="#djiQb4pZA" opacity="1" fill-opacity="0" stroke="#000000" stroke-width="1" stroke-opacity="0"></use></g></g><g><use xlink:href="#bjGhERY8y" opacity="1" fill="#000000" fill-opacity="1"></use><g><use xlink:href="#bjGhERY8y" opacity="1" fill-opacity="0" stroke="#000000" stroke-width="1" stroke-opacity="0"></use></g></g><g><use xlink:href="#b3K4wKuvdN" opacity="1" fill="url(#gradienta4SAyqXmRX)"></use><g><use xlink:href="#b3K4wKuvdN" opacity="1" fill-opacity="0" stroke="#000000" stroke-width="1" stroke-opacity="0"></use></g></g><g><use xlink:href="#aKIxxHOBa" opacity="1" fill="#37474f" fill-opacity="1"></use><g><use xlink:href="#aKIxxHOBa" opacity="1" fill-opacity="0" stroke="#000000" stroke-width="1" stroke-opacity="0"></use></g></g><g><use xlink:href="#bqjlkKLL2" opacity="1" fill="#ffffff" fill-opacity="1"></use><g><use xlink:href="#bqjlkKLL2" opacity="1" fill-opacity="0" stroke="#000000" stroke-width="1" stroke-opacity="0"></use></g></g><g><use xlink:href="#a9wvEbjim" opacity="1" fill="#e0e0e0" fill-opacity="1"></use><g><use xlink:href="#a9wvEbjim" opacity="1" fill-opacity="0" stroke="#000000" stroke-width="1" stroke-opacity="0"></use></g></g><g><use xlink:href="#a7znoJlya7" opacity="1" fill="#6c63ff" fill-opacity="1"></use><g><use xlink:href="#a7znoJlya7" opacity="1" fill-opacity="0" stroke="#000000" stroke-width="1" stroke-opacity="0"></use></g></g><g><use xlink:href="#bMcaIVpr" opacity="1" fill="url(#gradientb2MgfL2MOi)"></use><g><use xlink:href="#bMcaIVpr" opacity="1" fill-opacity="0" stroke="#000000" stroke-width="1" stroke-opacity="0"></use></g></g><g><use xlink:href="#acCaaIPen" opacity="1" fill="#37474f" fill-opacity="1"></use><g><use xlink:href="#acCaaIPen" opacity="1" fill-opacity="0" stroke="#000000" stroke-width="1" stroke-opacity="0"></use></g></g><g><use xlink:href="#e3lWBsVSbp" opacity="1" fill="#ffffff" fill-opacity="1"></use><g><use xlink:href="#e3lWBsVSbp" opacity="1" fill-opacity="0" stroke="#000000" stroke-width="1" stroke-opacity="0"></use></g></g><g><use xlink:href="#d2wbWsjHG" opacity="1" fill="#6c63ff" fill-opacity="1"></use><g><use xlink:href="#d2wbWsjHG" opacity="1" fill-opacity="0" stroke="#000000" stroke-width="1" stroke-opacity="0"></use></g></g></g></g></svg>